G04 #@! TF.GenerationSoftware,KiCad,Pcbnew,5.0.2-bee76a0~70~ubuntu18.04.1*
G04 #@! TF.CreationDate,2019-02-04T19:22:58+01:00*
G04 #@! TF.ProjectId,regulator,72656775-6c61-4746-9f72-2e6b69636164,rev?*
G04 #@! TF.SameCoordinates,Original*
G04 #@! TF.FileFunction,Copper,L1,Top*
G04 #@! TF.FilePolarity,Positive*
%FSLAX46Y46*%
G04 Gerber Fmt 4.6, Leading zero omitted, Abs format (unit mm)*
G04 Created by KiCad (PCBNEW 5.0.2-bee76a0~70~ubuntu18.04.1) date Po 4. února 2019, 19:22:58 CET*
%MOMM*%
%LPD*%
G01*
G04 APERTURE LIST*
G04 #@! TA.AperFunction,NonConductor*
%ADD10C,0.200000*%
G04 #@! TD*
G04 #@! TA.AperFunction,ComponentPad*
%ADD11C,1.600000*%
G04 #@! TD*
G04 #@! TA.AperFunction,ComponentPad*
%ADD12C,2.400000*%
G04 #@! TD*
G04 #@! TA.AperFunction,ComponentPad*
%ADD13O,2.400000X2.400000*%
G04 #@! TD*
G04 #@! TA.AperFunction,ComponentPad*
%ADD14R,2.400000X2.400000*%
G04 #@! TD*
G04 #@! TA.AperFunction,ComponentPad*
%ADD15R,2.200000X2.200000*%
G04 #@! TD*
G04 #@! TA.AperFunction,ComponentPad*
%ADD16O,2.200000X2.200000*%
G04 #@! TD*
G04 #@! TA.AperFunction,ComponentPad*
%ADD17R,1.600000X1.600000*%
G04 #@! TD*
G04 #@! TA.AperFunction,ComponentPad*
%ADD18O,1.600000X1.600000*%
G04 #@! TD*
G04 #@! TA.AperFunction,ComponentPad*
%ADD19C,1.800000*%
G04 #@! TD*
G04 #@! TA.AperFunction,ComponentPad*
%ADD20O,1.600000X1.200000*%
G04 #@! TD*
G04 #@! TA.AperFunction,ComponentPad*
%ADD21O,1.200000X1.200000*%
G04 #@! TD*
G04 #@! TA.AperFunction,ComponentPad*
%ADD22R,1.700000X1.700000*%
G04 #@! TD*
G04 #@! TA.AperFunction,ComponentPad*
%ADD23O,1.700000X1.700000*%
G04 #@! TD*
G04 #@! TA.AperFunction,ComponentPad*
%ADD24C,3.000000*%
G04 #@! TD*
G04 #@! TA.AperFunction,ComponentPad*
%ADD25R,3.000000X3.000000*%
G04 #@! TD*
G04 #@! TA.AperFunction,ComponentPad*
%ADD26C,2.800000*%
G04 #@! TD*
G04 #@! TA.AperFunction,ComponentPad*
%ADD27O,2.800000X2.800000*%
G04 #@! TD*
G04 #@! TA.AperFunction,ComponentPad*
%ADD28C,1.260000*%
G04 #@! TD*
G04 #@! TA.AperFunction,Conductor*
%ADD29C,1.000000*%
G04 #@! TD*
G04 #@! TA.AperFunction,Conductor*
%ADD30C,0.254000*%
G04 #@! TD*
G04 APERTURE END LIST*
D10*
X138001100Y-103003600D02*
G75*
G03X138001100Y-103003600I-2500000J0D01*
G01*
X178501100Y-71003600D02*
X118501100Y-71003600D01*
X178501100Y-71003600D02*
X178501100Y-139003600D01*
X164001100Y-103003600D02*
G75*
G03X164001100Y-103003600I-2500000J0D01*
G01*
X118501100Y-71003600D02*
X118501100Y-139003600D01*
X178501100Y-139003600D02*
X118501100Y-139003600D01*
D11*
G04 #@! TO.P,C1,1*
G04 #@! TO.N,Net-(C1-Pad1)*
X158830000Y-85090000D03*
G04 #@! TO.P,C1,2*
G04 #@! TO.N,Net-(C1-Pad2)*
X163830000Y-85090000D03*
G04 #@! TD*
G04 #@! TO.P,C2,2*
G04 #@! TO.N,GNDREF*
X139065000Y-74930000D03*
G04 #@! TO.P,C2,1*
G04 #@! TO.N,Net-(C2-Pad1)*
X134065000Y-74930000D03*
G04 #@! TD*
D12*
G04 #@! TO.P,C3,1*
G04 #@! TO.N,Net-(C3-Pad1)*
X171450000Y-111760000D03*
G04 #@! TO.P,C3,2*
G04 #@! TO.N,GND*
X171450000Y-96760000D03*
G04 #@! TD*
D13*
G04 #@! TO.P,D1,2*
G04 #@! TO.N,Net-(D1-Pad2)*
X143510000Y-125730000D03*
D14*
G04 #@! TO.P,D1,1*
G04 #@! TO.N,Net-(D1-Pad1)*
X143510000Y-113030000D03*
G04 #@! TD*
D13*
G04 #@! TO.P,D2,2*
G04 #@! TO.N,GND*
X153670000Y-113030000D03*
D14*
G04 #@! TO.P,D2,1*
G04 #@! TO.N,Net-(D1-Pad2)*
X153670000Y-125730000D03*
G04 #@! TD*
G04 #@! TO.P,D3,1*
G04 #@! TO.N,Net-(D1-Pad1)*
X135890000Y-113030000D03*
D13*
G04 #@! TO.P,D3,2*
G04 #@! TO.N,Net-(D3-Pad2)*
X135890000Y-125730000D03*
G04 #@! TD*
D14*
G04 #@! TO.P,D4,1*
G04 #@! TO.N,Net-(D3-Pad2)*
X161290000Y-125730000D03*
D13*
G04 #@! TO.P,D4,2*
G04 #@! TO.N,GND*
X161290000Y-113030000D03*
G04 #@! TD*
D15*
G04 #@! TO.P,D5,1*
G04 #@! TO.N,VCC*
X157480000Y-76200000D03*
D16*
G04 #@! TO.P,D5,2*
G04 #@! TO.N,GNDREF*
X165100000Y-76200000D03*
G04 #@! TD*
D17*
G04 #@! TO.P,D6,1*
G04 #@! TO.N,Net-(C1-Pad2)*
X157480000Y-80645000D03*
D18*
G04 #@! TO.P,D6,2*
G04 #@! TO.N,Net-(C2-Pad1)*
X165100000Y-80645000D03*
G04 #@! TD*
D17*
G04 #@! TO.P,D7,1*
G04 #@! TO.N,GND*
X172720000Y-76200000D03*
D19*
G04 #@! TO.P,D7,2*
G04 #@! TO.N,GNDREF*
X170180000Y-76200000D03*
G04 #@! TD*
D20*
G04 #@! TO.P,D8,1*
G04 #@! TO.N,GND*
X151130000Y-104140000D03*
D21*
G04 #@! TO.P,D8,2*
G04 #@! TO.N,Net-(C1-Pad1)*
X148590000Y-101600000D03*
G04 #@! TO.P,D8,3*
G04 #@! TO.N,Net-(D1-Pad1)*
X146050000Y-104140000D03*
G04 #@! TD*
D22*
G04 #@! TO.P,HG1,1*
G04 #@! TO.N,GNDREF*
X144780000Y-74930000D03*
D23*
G04 #@! TO.P,HG1,2*
G04 #@! TO.N,Net-(HG1-Pad2)*
X147320000Y-74930000D03*
G04 #@! TO.P,HG1,3*
G04 #@! TO.N,VCC*
X149860000Y-74930000D03*
G04 #@! TO.P,HG1,4*
G04 #@! TO.N,Net-(HG1-Pad4)*
X152400000Y-74930000D03*
G04 #@! TD*
D24*
G04 #@! TO.P,J1,2*
G04 #@! TO.N,Net-(J1-Pad2)*
X140970000Y-133350000D03*
G04 #@! TO.P,J1,3*
G04 #@! TO.N,Net-(J1-Pad3)*
X146050000Y-133350000D03*
D25*
G04 #@! TO.P,J1,1*
G04 #@! TO.N,Net-(D3-Pad2)*
X135890000Y-133350000D03*
D24*
G04 #@! TO.P,J1,4*
G04 #@! TO.N,Net-(J1-Pad3)*
X151130000Y-133350000D03*
G04 #@! TO.P,J1,5*
G04 #@! TO.N,Net-(J1-Pad2)*
X156210000Y-133350000D03*
G04 #@! TO.P,J1,6*
G04 #@! TO.N,Net-(D1-Pad2)*
X161290000Y-133350000D03*
G04 #@! TD*
D12*
G04 #@! TO.P,R1,1*
G04 #@! TO.N,Net-(R1-Pad1)*
X125730000Y-97790000D03*
D13*
G04 #@! TO.P,R1,2*
G04 #@! TO.N,VCC*
X125730000Y-74930000D03*
G04 #@! TD*
G04 #@! TO.P,R2,2*
G04 #@! TO.N,Net-(R1-Pad1)*
X125730000Y-110490000D03*
D12*
G04 #@! TO.P,R2,1*
G04 #@! TO.N,Net-(D1-Pad1)*
X125730000Y-133350000D03*
G04 #@! TD*
D11*
G04 #@! TO.P,R4,1*
G04 #@! TO.N,Net-(R4-Pad1)*
X169545000Y-92710000D03*
D18*
G04 #@! TO.P,R4,2*
G04 #@! TO.N,Net-(R4-Pad2)*
X169545000Y-82550000D03*
G04 #@! TD*
G04 #@! TO.P,R5,2*
G04 #@! TO.N,Net-(R4-Pad1)*
X131445000Y-82550000D03*
D11*
G04 #@! TO.P,R5,1*
G04 #@! TO.N,Net-(C1-Pad2)*
X141605000Y-82550000D03*
G04 #@! TD*
D18*
G04 #@! TO.P,R6,2*
G04 #@! TO.N,Net-(R6-Pad2)*
X131445000Y-86360000D03*
D11*
G04 #@! TO.P,R6,1*
G04 #@! TO.N,Net-(C2-Pad1)*
X141605000Y-86360000D03*
G04 #@! TD*
D26*
G04 #@! TO.P,R7,1*
G04 #@! TO.N,Net-(D1-Pad1)*
X171450000Y-133350000D03*
D27*
G04 #@! TO.P,R7,2*
G04 #@! TO.N,Net-(C3-Pad1)*
X171450000Y-118110000D03*
G04 #@! TD*
D11*
G04 #@! TO.P,R8,1*
G04 #@! TO.N,Net-(C1-Pad1)*
X173990000Y-82550000D03*
D18*
G04 #@! TO.P,R8,2*
G04 #@! TO.N,GND*
X173990000Y-92710000D03*
G04 #@! TD*
D11*
G04 #@! TO.P,R9,1*
G04 #@! TO.N,Net-(R9-Pad1)*
X131445000Y-78740000D03*
D18*
G04 #@! TO.P,R9,2*
G04 #@! TO.N,Net-(HG1-Pad2)*
X141605000Y-78740000D03*
G04 #@! TD*
D28*
G04 #@! TO.P,RV1,1*
G04 #@! TO.N,Net-(R9-Pad1)*
X135890000Y-95250000D03*
G04 #@! TO.P,RV1,2*
G04 #@! TO.N,Net-(R6-Pad2)*
X133350000Y-92710000D03*
G04 #@! TO.P,RV1,3*
X135890000Y-90170000D03*
G04 #@! TD*
G04 #@! TO.P,RV2,3*
G04 #@! TO.N,GNDREF*
X161290000Y-90170000D03*
G04 #@! TO.P,RV2,2*
G04 #@! TO.N,Net-(R4-Pad2)*
X158750000Y-92710000D03*
G04 #@! TO.P,RV2,1*
G04 #@! TO.N,VCC*
X161290000Y-95250000D03*
G04 #@! TD*
D17*
G04 #@! TO.P,U1,1*
G04 #@! TO.N,Net-(C1-Pad2)*
X146050000Y-84455000D03*
D18*
G04 #@! TO.P,U1,5*
G04 #@! TO.N,Net-(HG1-Pad4)*
X153670000Y-92075000D03*
G04 #@! TO.P,U1,2*
G04 #@! TO.N,Net-(C2-Pad1)*
X146050000Y-86995000D03*
G04 #@! TO.P,U1,6*
G04 #@! TO.N,Net-(R9-Pad1)*
X153670000Y-89535000D03*
G04 #@! TO.P,U1,3*
G04 #@! TO.N,Net-(R4-Pad1)*
X146050000Y-89535000D03*
G04 #@! TO.P,U1,7*
G04 #@! TO.N,Net-(R6-Pad2)*
X153670000Y-86995000D03*
G04 #@! TO.P,U1,4*
G04 #@! TO.N,GND*
X146050000Y-92075000D03*
G04 #@! TO.P,U1,8*
G04 #@! TO.N,VCC*
X153670000Y-84455000D03*
G04 #@! TD*
D29*
G04 #@! TO.N,Net-(C1-Pad1)*
X169349999Y-87190001D02*
X173190001Y-83349999D01*
X173190001Y-83349999D02*
X173990000Y-82550000D01*
X160930001Y-87190001D02*
X169349999Y-87190001D01*
X158830000Y-85090000D02*
X160930001Y-87190001D01*
G04 #@! TO.N,Net-(C1-Pad2)*
X159385000Y-80645000D02*
X163830000Y-85090000D01*
X157480000Y-80645000D02*
X159385000Y-80645000D01*
G04 #@! TO.N,GND*
X151130000Y-97155000D02*
X146050000Y-92075000D01*
X151130000Y-104140000D02*
X151130000Y-97155000D01*
G04 #@! TO.N,VCC*
X157937000Y-95250000D02*
X156210000Y-93523000D01*
X161290000Y-95250000D02*
X157937000Y-95250000D01*
X156210000Y-93523000D02*
X156210000Y-83315002D01*
X155380000Y-76200000D02*
X157480000Y-76200000D01*
X154305000Y-77275000D02*
X155380000Y-76200000D01*
X154305000Y-81410002D02*
X154305000Y-77275000D01*
X154469999Y-83635003D02*
X155500000Y-82605002D01*
X153670000Y-84455000D02*
X154469999Y-83655001D01*
X156210000Y-83315002D02*
X155500000Y-82605002D01*
X154469999Y-83655001D02*
X154469999Y-83635003D01*
X155500000Y-82605002D02*
X154305000Y-81410002D01*
G04 #@! TO.N,Net-(HG1-Pad4)*
X152538630Y-92075000D02*
X153670000Y-92075000D01*
X150495000Y-83505000D02*
X150495000Y-90031370D01*
X152400000Y-74930000D02*
X152400000Y-81600000D01*
X150495000Y-90031370D02*
X152538630Y-92075000D01*
X152400000Y-81600000D02*
X150495000Y-83505000D01*
G04 #@! TO.N,Net-(R4-Pad1)*
X155098033Y-97180001D02*
X165074999Y-97180001D01*
X168745001Y-93509999D02*
X169545000Y-92710000D01*
X165074999Y-97180001D02*
X168745001Y-93509999D01*
X147453032Y-89535000D02*
X155098033Y-97180001D01*
X146050000Y-89535000D02*
X147453032Y-89535000D01*
G04 #@! TO.N,GNDREF*
X144780000Y-74930000D02*
X139065000Y-74930000D01*
X161290000Y-90170000D02*
X169830000Y-90170000D01*
X176090001Y-83909999D02*
X176090001Y-81090001D01*
X169830000Y-90170000D02*
X176090001Y-83909999D01*
X170180000Y-76200000D02*
X170619999Y-76200000D01*
X170180000Y-76200000D02*
X170180000Y-77472792D01*
X176090001Y-81090001D02*
X174292792Y-79292792D01*
X170180000Y-77472792D02*
X172000000Y-79292792D01*
X174292792Y-79292792D02*
X172000000Y-79292792D01*
X162779999Y-73879999D02*
X165100000Y-76200000D01*
X161679999Y-72779999D02*
X162779999Y-73879999D01*
X145080001Y-72779999D02*
X161679999Y-72779999D01*
X144780000Y-73080000D02*
X145080001Y-72779999D01*
X144780000Y-74930000D02*
X144780000Y-73080000D01*
G04 #@! TD*
D30*
G04 #@! TO.N,GND*
G36*
X144051192Y-71751190D02*
X143971578Y-71870340D01*
X143870340Y-71971579D01*
X143751192Y-72051191D01*
X143557183Y-72341546D01*
X143435796Y-72523213D01*
X143325045Y-73080000D01*
X143353001Y-73220545D01*
X143353001Y-73350645D01*
X143261670Y-73411670D01*
X143200645Y-73503000D01*
X140080347Y-73503000D01*
X140043267Y-73465920D01*
X139408522Y-73203000D01*
X138721478Y-73203000D01*
X138086733Y-73465920D01*
X137600920Y-73951733D01*
X137338000Y-74586478D01*
X137338000Y-75273522D01*
X137600920Y-75908267D01*
X138086733Y-76394080D01*
X138721478Y-76657000D01*
X139408522Y-76657000D01*
X140043267Y-76394080D01*
X140080347Y-76357000D01*
X143200645Y-76357000D01*
X143261670Y-76448330D01*
X143568303Y-76653215D01*
X143930000Y-76725161D01*
X145630000Y-76725161D01*
X145991697Y-76653215D01*
X146298330Y-76448330D01*
X146327806Y-76404216D01*
X146626649Y-76603897D01*
X147144983Y-76707000D01*
X147495017Y-76707000D01*
X148013351Y-76603897D01*
X148590000Y-76218592D01*
X149166649Y-76603897D01*
X149684983Y-76707000D01*
X150035017Y-76707000D01*
X150553351Y-76603897D01*
X150973000Y-76323496D01*
X150973001Y-81008917D01*
X149585340Y-82396579D01*
X149466191Y-82476192D01*
X149150796Y-82948213D01*
X149068000Y-83364457D01*
X149068000Y-83364460D01*
X149040045Y-83505000D01*
X149068000Y-83645541D01*
X149068001Y-89131888D01*
X148561456Y-88625343D01*
X148481841Y-88506191D01*
X148009820Y-88190796D01*
X147593576Y-88108000D01*
X147593572Y-88108000D01*
X147453032Y-88080045D01*
X147394224Y-88091742D01*
X147676798Y-87668842D01*
X147810833Y-86995000D01*
X147676798Y-86321158D01*
X147444113Y-85972920D01*
X147518330Y-85923330D01*
X147723215Y-85616697D01*
X147795161Y-85255000D01*
X147795161Y-83655000D01*
X147723215Y-83293303D01*
X147518330Y-82986670D01*
X147211697Y-82781785D01*
X146850000Y-82709839D01*
X145250000Y-82709839D01*
X144888303Y-82781785D01*
X144581670Y-82986670D01*
X144376785Y-83293303D01*
X144304839Y-83655000D01*
X144304839Y-85255000D01*
X144376785Y-85616697D01*
X144581670Y-85923330D01*
X144655887Y-85972920D01*
X144423202Y-86321158D01*
X144289167Y-86995000D01*
X144423202Y-87668842D01*
X144804903Y-88240097D01*
X144842173Y-88265000D01*
X144804903Y-88289903D01*
X144423202Y-88861158D01*
X144289167Y-89535000D01*
X144423202Y-90208842D01*
X144804903Y-90780097D01*
X145128249Y-90996150D01*
X144818959Y-91337577D01*
X144658096Y-91725961D01*
X144780085Y-91948000D01*
X145923000Y-91948000D01*
X145923000Y-91928000D01*
X146177000Y-91928000D01*
X146177000Y-91948000D01*
X147319915Y-91948000D01*
X147441904Y-91725961D01*
X147311806Y-91411855D01*
X153989611Y-98089661D01*
X154069224Y-98208810D01*
X154541245Y-98524205D01*
X154957489Y-98607001D01*
X154957492Y-98607001D01*
X155098032Y-98634956D01*
X155238573Y-98607001D01*
X164934459Y-98607001D01*
X165074999Y-98634956D01*
X165215539Y-98607001D01*
X165215543Y-98607001D01*
X165631787Y-98524205D01*
X166103808Y-98208810D01*
X166183423Y-98089658D01*
X166215906Y-98057175D01*
X170332430Y-98057175D01*
X170455565Y-98344788D01*
X171137734Y-98604707D01*
X171867443Y-98583786D01*
X172444435Y-98344788D01*
X172567570Y-98057175D01*
X171450000Y-96939605D01*
X170332430Y-98057175D01*
X166215906Y-98057175D01*
X167825347Y-96447734D01*
X169605293Y-96447734D01*
X169626214Y-97177443D01*
X169865212Y-97754435D01*
X170152825Y-97877570D01*
X171270395Y-96760000D01*
X171629605Y-96760000D01*
X172747175Y-97877570D01*
X173034788Y-97754435D01*
X173294707Y-97072266D01*
X173273786Y-96342557D01*
X173034788Y-95765565D01*
X172747175Y-95642430D01*
X171629605Y-96760000D01*
X171270395Y-96760000D01*
X170152825Y-95642430D01*
X169865212Y-95765565D01*
X169605293Y-96447734D01*
X167825347Y-96447734D01*
X168810256Y-95462825D01*
X170332430Y-95462825D01*
X171450000Y-96580395D01*
X172567570Y-95462825D01*
X172444435Y-95175212D01*
X171762266Y-94915293D01*
X171032557Y-94936214D01*
X170455565Y-95175212D01*
X170332430Y-95462825D01*
X168810256Y-95462825D01*
X169836083Y-94437000D01*
X169888522Y-94437000D01*
X170523267Y-94174080D01*
X171009080Y-93688267D01*
X171269713Y-93059041D01*
X172598086Y-93059041D01*
X172837611Y-93565134D01*
X173252577Y-93941041D01*
X173640961Y-94101904D01*
X173863000Y-93979915D01*
X173863000Y-92837000D01*
X174117000Y-92837000D01*
X174117000Y-93979915D01*
X174339039Y-94101904D01*
X174727423Y-93941041D01*
X175142389Y-93565134D01*
X175381914Y-93059041D01*
X175260629Y-92837000D01*
X174117000Y-92837000D01*
X173863000Y-92837000D01*
X172719371Y-92837000D01*
X172598086Y-93059041D01*
X171269713Y-93059041D01*
X171272000Y-93053522D01*
X171272000Y-92366478D01*
X171269714Y-92360959D01*
X172598086Y-92360959D01*
X172719371Y-92583000D01*
X173863000Y-92583000D01*
X173863000Y-91440085D01*
X174117000Y-91440085D01*
X174117000Y-92583000D01*
X175260629Y-92583000D01*
X175381914Y-92360959D01*
X175142389Y-91854866D01*
X174727423Y-91478959D01*
X174339039Y-91318096D01*
X174117000Y-91440085D01*
X173863000Y-91440085D01*
X173640961Y-91318096D01*
X173252577Y-91478959D01*
X172837611Y-91854866D01*
X172598086Y-92360959D01*
X171269714Y-92360959D01*
X171009080Y-91731733D01*
X170629425Y-91352078D01*
X170858809Y-91198809D01*
X170938424Y-91079657D01*
X176999663Y-85018419D01*
X177118809Y-84938808D01*
X177247321Y-84746478D01*
X177434205Y-84466787D01*
X177491887Y-84176798D01*
X177517001Y-84050543D01*
X177517001Y-84050540D01*
X177544956Y-83910000D01*
X177517001Y-83769460D01*
X177517001Y-81230540D01*
X177544956Y-81090000D01*
X177517001Y-80949460D01*
X177517001Y-80949457D01*
X177434205Y-80533213D01*
X177118810Y-80061192D01*
X176999663Y-79981581D01*
X175401216Y-78383134D01*
X175321601Y-78263983D01*
X174849580Y-77948588D01*
X174433336Y-77865792D01*
X174433332Y-77865792D01*
X174292792Y-77837837D01*
X174152252Y-77865792D01*
X172591082Y-77865792D01*
X172360290Y-77635000D01*
X172434250Y-77635000D01*
X172593000Y-77476250D01*
X172593000Y-76327000D01*
X172847000Y-76327000D01*
X172847000Y-77476250D01*
X173005750Y-77635000D01*
X173646309Y-77635000D01*
X173879698Y-77538327D01*
X174058327Y-77359699D01*
X174155000Y-77126310D01*
X174155000Y-76485750D01*
X173996250Y-76327000D01*
X172847000Y-76327000D01*
X172593000Y-76327000D01*
X172573000Y-76327000D01*
X172573000Y-76073000D01*
X172593000Y-76073000D01*
X172593000Y-74923750D01*
X172847000Y-74923750D01*
X172847000Y-76073000D01*
X173996250Y-76073000D01*
X174155000Y-75914250D01*
X174155000Y-75273690D01*
X174058327Y-75040301D01*
X173879698Y-74861673D01*
X173646309Y-74765000D01*
X173005750Y-74765000D01*
X172847000Y-74923750D01*
X172593000Y-74923750D01*
X172434250Y-74765000D01*
X171793691Y-74765000D01*
X171560302Y-74861673D01*
X171492871Y-74929103D01*
X171214912Y-74651144D01*
X170543413Y-74373000D01*
X169816587Y-74373000D01*
X169145088Y-74651144D01*
X168631144Y-75165088D01*
X168353000Y-75836587D01*
X168353000Y-76563413D01*
X168631144Y-77234912D01*
X168748933Y-77352701D01*
X168725045Y-77472792D01*
X168753000Y-77613332D01*
X168753000Y-77613336D01*
X168835796Y-78029580D01*
X169151192Y-78501601D01*
X169270340Y-78581214D01*
X170891580Y-80202454D01*
X170971191Y-80321601D01*
X171090337Y-80401212D01*
X171090338Y-80401213D01*
X171212875Y-80483090D01*
X171443212Y-80636996D01*
X171859456Y-80719792D01*
X171859460Y-80719792D01*
X172000000Y-80747747D01*
X172140540Y-80719792D01*
X173701710Y-80719792D01*
X173804918Y-80823000D01*
X173646478Y-80823000D01*
X173011733Y-81085920D01*
X172525920Y-81571733D01*
X172263000Y-82206478D01*
X172263000Y-82258917D01*
X170917515Y-83604402D01*
X171171798Y-83223842D01*
X171305833Y-82550000D01*
X171171798Y-81876158D01*
X170790097Y-81304903D01*
X170218842Y-80923202D01*
X169715091Y-80823000D01*
X169374909Y-80823000D01*
X168871158Y-80923202D01*
X168299903Y-81304903D01*
X167918202Y-81876158D01*
X167784167Y-82550000D01*
X167918202Y-83223842D01*
X168299903Y-83795097D01*
X168871158Y-84176798D01*
X169374909Y-84277000D01*
X169715091Y-84277000D01*
X170218842Y-84176798D01*
X170599403Y-83922515D01*
X168758918Y-85763001D01*
X165420525Y-85763001D01*
X165557000Y-85433522D01*
X165557000Y-84746478D01*
X165294080Y-84111733D01*
X164808267Y-83625920D01*
X164173522Y-83363000D01*
X164121082Y-83363000D01*
X161403082Y-80645000D01*
X163339167Y-80645000D01*
X163473202Y-81318842D01*
X163854903Y-81890097D01*
X164426158Y-82271798D01*
X164929909Y-82372000D01*
X165270091Y-82372000D01*
X165773842Y-82271798D01*
X166345097Y-81890097D01*
X166726798Y-81318842D01*
X166860833Y-80645000D01*
X166726798Y-79971158D01*
X166345097Y-79399903D01*
X165773842Y-79018202D01*
X165270091Y-78918000D01*
X164929909Y-78918000D01*
X164426158Y-79018202D01*
X163854903Y-79399903D01*
X163473202Y-79971158D01*
X163339167Y-80645000D01*
X161403082Y-80645000D01*
X160493424Y-79735343D01*
X160413809Y-79616191D01*
X159941788Y-79300796D01*
X159525544Y-79218000D01*
X159525540Y-79218000D01*
X159385000Y-79190045D01*
X159244460Y-79218000D01*
X158975946Y-79218000D01*
X158948330Y-79176670D01*
X158641697Y-78971785D01*
X158280000Y-78899839D01*
X156680000Y-78899839D01*
X156318303Y-78971785D01*
X156011670Y-79176670D01*
X155806785Y-79483303D01*
X155734839Y-79845000D01*
X155734839Y-80821760D01*
X155732000Y-80818921D01*
X155732000Y-77981914D01*
X156018303Y-78173215D01*
X156380000Y-78245161D01*
X158580000Y-78245161D01*
X158941697Y-78173215D01*
X159248330Y-77968330D01*
X159453215Y-77661697D01*
X159525161Y-77300000D01*
X159525161Y-75100000D01*
X159453215Y-74738303D01*
X159248330Y-74431670D01*
X158941697Y-74226785D01*
X158842226Y-74206999D01*
X161088917Y-74206999D01*
X161870337Y-74988420D01*
X161870343Y-74988424D01*
X163041357Y-76159439D01*
X163033289Y-76200000D01*
X163190608Y-76990896D01*
X163638615Y-77661385D01*
X164309104Y-78109392D01*
X164900359Y-78227000D01*
X165299641Y-78227000D01*
X165890896Y-78109392D01*
X166561385Y-77661385D01*
X167009392Y-76990896D01*
X167166711Y-76200000D01*
X167009392Y-75409104D01*
X166561385Y-74738615D01*
X165890896Y-74290608D01*
X165299641Y-74173000D01*
X165091082Y-74173000D01*
X163888424Y-72970343D01*
X163888420Y-72970337D01*
X162788422Y-71870341D01*
X162708808Y-71751190D01*
X162689966Y-71738600D01*
X177766100Y-71738600D01*
X177766101Y-138268600D01*
X119236100Y-138268600D01*
X119236100Y-132926913D01*
X123603000Y-132926913D01*
X123603000Y-133773087D01*
X123926817Y-134554848D01*
X124525152Y-135153183D01*
X125306913Y-135477000D01*
X126153087Y-135477000D01*
X126934848Y-135153183D01*
X127533183Y-134554848D01*
X127857000Y-133773087D01*
X127857000Y-132926913D01*
X127533183Y-132145152D01*
X127238031Y-131850000D01*
X133444839Y-131850000D01*
X133444839Y-134850000D01*
X133516785Y-135211697D01*
X133721670Y-135518330D01*
X134028303Y-135723215D01*
X134390000Y-135795161D01*
X137390000Y-135795161D01*
X137751697Y-135723215D01*
X138058330Y-135518330D01*
X138263215Y-135211697D01*
X138335161Y-134850000D01*
X138335161Y-132867240D01*
X138543000Y-132867240D01*
X138543000Y-133832760D01*
X138912489Y-134724785D01*
X139595215Y-135407511D01*
X140487240Y-135777000D01*
X141452760Y-135777000D01*
X142344785Y-135407511D01*
X143027511Y-134724785D01*
X143397000Y-133832760D01*
X143397000Y-132867240D01*
X143623000Y-132867240D01*
X143623000Y-133832760D01*
X143992489Y-134724785D01*
X144675215Y-135407511D01*
X145567240Y-135777000D01*
X146532760Y-135777000D01*
X147424785Y-135407511D01*
X148107511Y-134724785D01*
X148477000Y-133832760D01*
X148477000Y-132867240D01*
X148703000Y-132867240D01*
X148703000Y-133832760D01*
X149072489Y-134724785D01*
X149755215Y-135407511D01*
X150647240Y-135777000D01*
X151612760Y-135777000D01*
X152504785Y-135407511D01*
X153187511Y-134724785D01*
X153557000Y-133832760D01*
X153557000Y-132867240D01*
X153783000Y-132867240D01*
X153783000Y-133832760D01*
X154152489Y-134724785D01*
X154835215Y-135407511D01*
X155727240Y-135777000D01*
X156692760Y-135777000D01*
X157584785Y-135407511D01*
X158267511Y-134724785D01*
X158637000Y-133832760D01*
X158637000Y-132867240D01*
X158863000Y-132867240D01*
X158863000Y-133832760D01*
X159232489Y-134724785D01*
X159915215Y-135407511D01*
X160807240Y-135777000D01*
X161772760Y-135777000D01*
X162664785Y-135407511D01*
X163347511Y-134724785D01*
X163717000Y-133832760D01*
X163717000Y-132887131D01*
X169123000Y-132887131D01*
X169123000Y-133812869D01*
X169477264Y-134668140D01*
X170131860Y-135322736D01*
X170987131Y-135677000D01*
X171912869Y-135677000D01*
X172768140Y-135322736D01*
X173422736Y-134668140D01*
X173777000Y-133812869D01*
X173777000Y-132887131D01*
X173422736Y-132031860D01*
X172768140Y-131377264D01*
X171912869Y-131023000D01*
X170987131Y-131023000D01*
X170131860Y-131377264D01*
X169477264Y-132031860D01*
X169123000Y-132887131D01*
X163717000Y-132887131D01*
X163717000Y-132867240D01*
X163347511Y-131975215D01*
X162664785Y-131292489D01*
X161772760Y-130923000D01*
X160807240Y-130923000D01*
X159915215Y-131292489D01*
X159232489Y-131975215D01*
X158863000Y-132867240D01*
X158637000Y-132867240D01*
X158267511Y-131975215D01*
X157584785Y-131292489D01*
X156692760Y-130923000D01*
X155727240Y-130923000D01*
X154835215Y-131292489D01*
X154152489Y-131975215D01*
X153783000Y-132867240D01*
X153557000Y-132867240D01*
X153187511Y-131975215D01*
X152504785Y-131292489D01*
X151612760Y-130923000D01*
X150647240Y-130923000D01*
X149755215Y-131292489D01*
X149072489Y-131975215D01*
X148703000Y-132867240D01*
X148477000Y-132867240D01*
X148107511Y-131975215D01*
X147424785Y-131292489D01*
X146532760Y-130923000D01*
X145567240Y-130923000D01*
X144675215Y-131292489D01*
X143992489Y-131975215D01*
X143623000Y-132867240D01*
X143397000Y-132867240D01*
X143027511Y-131975215D01*
X142344785Y-131292489D01*
X141452760Y-130923000D01*
X140487240Y-130923000D01*
X139595215Y-131292489D01*
X138912489Y-131975215D01*
X138543000Y-132867240D01*
X138335161Y-132867240D01*
X138335161Y-131850000D01*
X138263215Y-131488303D01*
X138058330Y-131181670D01*
X137751697Y-130976785D01*
X137390000Y-130904839D01*
X134390000Y-130904839D01*
X134028303Y-130976785D01*
X133721670Y-131181670D01*
X133516785Y-131488303D01*
X133444839Y-131850000D01*
X127238031Y-131850000D01*
X126934848Y-131546817D01*
X126153087Y-131223000D01*
X125306913Y-131223000D01*
X124525152Y-131546817D01*
X123926817Y-132145152D01*
X123603000Y-132926913D01*
X119236100Y-132926913D01*
X119236100Y-125730000D01*
X133721330Y-125730000D01*
X133886410Y-126559914D01*
X134356519Y-127263481D01*
X135060086Y-127733590D01*
X135680511Y-127857000D01*
X136099489Y-127857000D01*
X136719914Y-127733590D01*
X137423481Y-127263481D01*
X137893590Y-126559914D01*
X138058670Y-125730000D01*
X141341330Y-125730000D01*
X141506410Y-126559914D01*
X141976519Y-127263481D01*
X142680086Y-127733590D01*
X143300511Y-127857000D01*
X143719489Y-127857000D01*
X144339914Y-127733590D01*
X145043481Y-127263481D01*
X145513590Y-126559914D01*
X145678670Y-125730000D01*
X145513590Y-124900086D01*
X145266307Y-124530000D01*
X151524839Y-124530000D01*
X151524839Y-126930000D01*
X151596785Y-127291697D01*
X151801670Y-127598330D01*
X152108303Y-127803215D01*
X152470000Y-127875161D01*
X154870000Y-127875161D01*
X155231697Y-127803215D01*
X155538330Y-127598330D01*
X155743215Y-127291697D01*
X155815161Y-126930000D01*
X155815161Y-124530000D01*
X159144839Y-124530000D01*
X159144839Y-126930000D01*
X159216785Y-127291697D01*
X159421670Y-127598330D01*
X159728303Y-127803215D01*
X160090000Y-127875161D01*
X162490000Y-127875161D01*
X162851697Y-127803215D01*
X163158330Y-127598330D01*
X163363215Y-127291697D01*
X163435161Y-126930000D01*
X163435161Y-124530000D01*
X163363215Y-124168303D01*
X163158330Y-123861670D01*
X162851697Y-123656785D01*
X162490000Y-123584839D01*
X160090000Y-123584839D01*
X159728303Y-123656785D01*
X159421670Y-123861670D01*
X159216785Y-124168303D01*
X159144839Y-124530000D01*
X155815161Y-124530000D01*
X155743215Y-124168303D01*
X155538330Y-123861670D01*
X155231697Y-123656785D01*
X154870000Y-123584839D01*
X152470000Y-123584839D01*
X152108303Y-123656785D01*
X151801670Y-123861670D01*
X151596785Y-124168303D01*
X151524839Y-124530000D01*
X145266307Y-124530000D01*
X145043481Y-124196519D01*
X144339914Y-123726410D01*
X143719489Y-123603000D01*
X143300511Y-123603000D01*
X142680086Y-123726410D01*
X141976519Y-124196519D01*
X141506410Y-124900086D01*
X141341330Y-125730000D01*
X138058670Y-125730000D01*
X137893590Y-124900086D01*
X137423481Y-124196519D01*
X136719914Y-123726410D01*
X136099489Y-123603000D01*
X135680511Y-123603000D01*
X135060086Y-123726410D01*
X134356519Y-124196519D01*
X133886410Y-124900086D01*
X133721330Y-125730000D01*
X119236100Y-125730000D01*
X119236100Y-118110000D01*
X169077412Y-118110000D01*
X169258015Y-119017950D01*
X169772327Y-119787673D01*
X170542050Y-120301985D01*
X171220814Y-120437000D01*
X171679186Y-120437000D01*
X172357950Y-120301985D01*
X173127673Y-119787673D01*
X173641985Y-119017950D01*
X173822588Y-118110000D01*
X173641985Y-117202050D01*
X173127673Y-116432327D01*
X172357950Y-115918015D01*
X171679186Y-115783000D01*
X171220814Y-115783000D01*
X170542050Y-115918015D01*
X169772327Y-116432327D01*
X169258015Y-117202050D01*
X169077412Y-118110000D01*
X119236100Y-118110000D01*
X119236100Y-110490000D01*
X123561330Y-110490000D01*
X123726410Y-111319914D01*
X124196519Y-112023481D01*
X124900086Y-112493590D01*
X125520511Y-112617000D01*
X125939489Y-112617000D01*
X126559914Y-112493590D01*
X127263481Y-112023481D01*
X127392761Y-111830000D01*
X133744839Y-111830000D01*
X133744839Y-114230000D01*
X133816785Y-114591697D01*
X134021670Y-114898330D01*
X134328303Y-115103215D01*
X134690000Y-115175161D01*
X137090000Y-115175161D01*
X137451697Y-115103215D01*
X137758330Y-114898330D01*
X137963215Y-114591697D01*
X138035161Y-114230000D01*
X138035161Y-111830000D01*
X141364839Y-111830000D01*
X141364839Y-114230000D01*
X141436785Y-114591697D01*
X141641670Y-114898330D01*
X141948303Y-115103215D01*
X142310000Y-115175161D01*
X144710000Y-115175161D01*
X145071697Y-115103215D01*
X145378330Y-114898330D01*
X145583215Y-114591697D01*
X145655161Y-114230000D01*
X145655161Y-113441807D01*
X151881797Y-113441807D01*
X152175508Y-114094776D01*
X152696742Y-114585642D01*
X153258195Y-114818195D01*
X153543000Y-114701432D01*
X153543000Y-113157000D01*
X153797000Y-113157000D01*
X153797000Y-114701432D01*
X154081805Y-114818195D01*
X154643258Y-114585642D01*
X155164492Y-114094776D01*
X155458203Y-113441807D01*
X159501797Y-113441807D01*
X159795508Y-114094776D01*
X160316742Y-114585642D01*
X160878195Y-114818195D01*
X161163000Y-114701432D01*
X161163000Y-113157000D01*
X161417000Y-113157000D01*
X161417000Y-114701432D01*
X161701805Y-114818195D01*
X162263258Y-114585642D01*
X162784492Y-114094776D01*
X163078203Y-113441807D01*
X162961858Y-113157000D01*
X161417000Y-113157000D01*
X161163000Y-113157000D01*
X159618142Y-113157000D01*
X159501797Y-113441807D01*
X155458203Y-113441807D01*
X155341858Y-113157000D01*
X153797000Y-113157000D01*
X153543000Y-113157000D01*
X151998142Y-113157000D01*
X151881797Y-113441807D01*
X145655161Y-113441807D01*
X145655161Y-112618193D01*
X151881797Y-112618193D01*
X151998142Y-112903000D01*
X153543000Y-112903000D01*
X153543000Y-111358568D01*
X153797000Y-111358568D01*
X153797000Y-112903000D01*
X155341858Y-112903000D01*
X155458203Y-112618193D01*
X159501797Y-112618193D01*
X159618142Y-112903000D01*
X161163000Y-112903000D01*
X161163000Y-111358568D01*
X161417000Y-111358568D01*
X161417000Y-112903000D01*
X162961858Y-112903000D01*
X163078203Y-112618193D01*
X162784492Y-111965224D01*
X162263258Y-111474358D01*
X161931425Y-111336913D01*
X169323000Y-111336913D01*
X169323000Y-112183087D01*
X169646817Y-112964848D01*
X170245152Y-113563183D01*
X171026913Y-113887000D01*
X171873087Y-113887000D01*
X172654848Y-113563183D01*
X173253183Y-112964848D01*
X173577000Y-112183087D01*
X173577000Y-111336913D01*
X173253183Y-110555152D01*
X172654848Y-109956817D01*
X171873087Y-109633000D01*
X171026913Y-109633000D01*
X170245152Y-109956817D01*
X169646817Y-110555152D01*
X169323000Y-111336913D01*
X161931425Y-111336913D01*
X161701805Y-111241805D01*
X161417000Y-111358568D01*
X161163000Y-111358568D01*
X160878195Y-111241805D01*
X160316742Y-111474358D01*
X159795508Y-111965224D01*
X159501797Y-112618193D01*
X155458203Y-112618193D01*
X155164492Y-111965224D01*
X154643258Y-111474358D01*
X154081805Y-111241805D01*
X153797000Y-111358568D01*
X153543000Y-111358568D01*
X153258195Y-111241805D01*
X152696742Y-111474358D01*
X152175508Y-111965224D01*
X151881797Y-112618193D01*
X145655161Y-112618193D01*
X145655161Y-111830000D01*
X145583215Y-111468303D01*
X145378330Y-111161670D01*
X145071697Y-110956785D01*
X144710000Y-110884839D01*
X142310000Y-110884839D01*
X141948303Y-110956785D01*
X141641670Y-111161670D01*
X141436785Y-111468303D01*
X141364839Y-111830000D01*
X138035161Y-111830000D01*
X137963215Y-111468303D01*
X137758330Y-111161670D01*
X137451697Y-110956785D01*
X137090000Y-110884839D01*
X134690000Y-110884839D01*
X134328303Y-110956785D01*
X134021670Y-111161670D01*
X133816785Y-111468303D01*
X133744839Y-111830000D01*
X127392761Y-111830000D01*
X127733590Y-111319914D01*
X127898670Y-110490000D01*
X127733590Y-109660086D01*
X127263481Y-108956519D01*
X126559914Y-108486410D01*
X125939489Y-108363000D01*
X125520511Y-108363000D01*
X124900086Y-108486410D01*
X124196519Y-108956519D01*
X123726410Y-109660086D01*
X123561330Y-110490000D01*
X119236100Y-110490000D01*
X119236100Y-102595640D01*
X132271767Y-102595640D01*
X132271767Y-103411560D01*
X132474678Y-104201845D01*
X132867750Y-104916841D01*
X133426285Y-105511621D01*
X134115188Y-105948812D01*
X134891174Y-106200945D01*
X135705483Y-106252177D01*
X136506950Y-106099289D01*
X137245216Y-105751887D01*
X137873893Y-105231801D01*
X138353478Y-104571708D01*
X138524403Y-104140000D01*
X144493085Y-104140000D01*
X144611598Y-104735806D01*
X144949095Y-105240905D01*
X145454194Y-105578402D01*
X145899607Y-105667000D01*
X146200393Y-105667000D01*
X146645806Y-105578402D01*
X147150905Y-105240905D01*
X147488402Y-104735806D01*
X147543738Y-104457609D01*
X149736538Y-104457609D01*
X149742526Y-104500161D01*
X149970745Y-104927172D01*
X150345002Y-105234343D01*
X150808319Y-105374910D01*
X151003000Y-105219991D01*
X151003000Y-104267000D01*
X151257000Y-104267000D01*
X151257000Y-105219991D01*
X151451681Y-105374910D01*
X151914998Y-105234343D01*
X152289255Y-104927172D01*
X152517474Y-104500161D01*
X152523462Y-104457609D01*
X152398731Y-104267000D01*
X151257000Y-104267000D01*
X151003000Y-104267000D01*
X149861269Y-104267000D01*
X149736538Y-104457609D01*
X147543738Y-104457609D01*
X147606915Y-104140000D01*
X147543739Y-103822391D01*
X149736538Y-103822391D01*
X149861269Y-104013000D01*
X151003000Y-104013000D01*
X151003000Y-103060009D01*
X151257000Y-103060009D01*
X151257000Y-104013000D01*
X152398731Y-104013000D01*
X152523462Y-103822391D01*
X152517474Y-103779839D01*
X152289255Y-103352828D01*
X151914998Y-103045657D01*
X151451681Y-102905090D01*
X151257000Y-103060009D01*
X151003000Y-103060009D01*
X150808319Y-102905090D01*
X150345002Y-103045657D01*
X149970745Y-103352828D01*
X149742526Y-103779839D01*
X149736538Y-103822391D01*
X147543739Y-103822391D01*
X147488402Y-103544194D01*
X147150905Y-103039095D01*
X146645806Y-102701598D01*
X146200393Y-102613000D01*
X145899607Y-102613000D01*
X145454194Y-102701598D01*
X144949095Y-103039095D01*
X144611598Y-103544194D01*
X144493085Y-104140000D01*
X138524403Y-104140000D01*
X138653838Y-103813086D01*
X138756100Y-103003600D01*
X138653838Y-102194114D01*
X138418612Y-101600000D01*
X147033085Y-101600000D01*
X147151598Y-102195806D01*
X147489095Y-102700905D01*
X147994194Y-103038402D01*
X148439607Y-103127000D01*
X148740393Y-103127000D01*
X149185806Y-103038402D01*
X149690905Y-102700905D01*
X149761240Y-102595640D01*
X158271767Y-102595640D01*
X158271767Y-103411560D01*
X158474678Y-104201845D01*
X158867750Y-104916841D01*
X159426285Y-105511621D01*
X160115188Y-105948812D01*
X160891174Y-106200945D01*
X161705483Y-106252177D01*
X162506950Y-106099289D01*
X163245216Y-105751887D01*
X163873893Y-105231801D01*
X164353478Y-104571708D01*
X164653838Y-103813086D01*
X164756100Y-103003600D01*
X164653838Y-102194114D01*
X164353478Y-101435492D01*
X163873893Y-100775399D01*
X163245216Y-100255313D01*
X162506950Y-99907911D01*
X161705483Y-99755023D01*
X160891174Y-99806255D01*
X160115188Y-100058388D01*
X159426285Y-100495579D01*
X158867750Y-101090359D01*
X158474678Y-101805355D01*
X158271767Y-102595640D01*
X149761240Y-102595640D01*
X150028402Y-102195806D01*
X150146915Y-101600000D01*
X150028402Y-101004194D01*
X149690905Y-100499095D01*
X149185806Y-100161598D01*
X148740393Y-100073000D01*
X148439607Y-100073000D01*
X147994194Y-100161598D01*
X147489095Y-100499095D01*
X147151598Y-101004194D01*
X147033085Y-101600000D01*
X138418612Y-101600000D01*
X138353478Y-101435492D01*
X137873893Y-100775399D01*
X137245216Y-100255313D01*
X136506950Y-99907911D01*
X135705483Y-99755023D01*
X134891174Y-99806255D01*
X134115188Y-100058388D01*
X133426285Y-100495579D01*
X132867750Y-101090359D01*
X132474678Y-101805355D01*
X132271767Y-102595640D01*
X119236100Y-102595640D01*
X119236100Y-97366913D01*
X123603000Y-97366913D01*
X123603000Y-98213087D01*
X123926817Y-98994848D01*
X124525152Y-99593183D01*
X125306913Y-99917000D01*
X126153087Y-99917000D01*
X126934848Y-99593183D01*
X127533183Y-98994848D01*
X127857000Y-98213087D01*
X127857000Y-97366913D01*
X127533183Y-96585152D01*
X126934848Y-95986817D01*
X126153087Y-95663000D01*
X125306913Y-95663000D01*
X124525152Y-95986817D01*
X123926817Y-96585152D01*
X123603000Y-97366913D01*
X119236100Y-97366913D01*
X119236100Y-94940294D01*
X134333000Y-94940294D01*
X134333000Y-95559706D01*
X134570039Y-96131969D01*
X135008031Y-96569961D01*
X135580294Y-96807000D01*
X136199706Y-96807000D01*
X136771969Y-96569961D01*
X137209961Y-96131969D01*
X137447000Y-95559706D01*
X137447000Y-94940294D01*
X137209961Y-94368031D01*
X136771969Y-93930039D01*
X136199706Y-93693000D01*
X135580294Y-93693000D01*
X135008031Y-93930039D01*
X134570039Y-94368031D01*
X134333000Y-94940294D01*
X119236100Y-94940294D01*
X119236100Y-92400294D01*
X131793000Y-92400294D01*
X131793000Y-93019706D01*
X132030039Y-93591969D01*
X132468031Y-94029961D01*
X133040294Y-94267000D01*
X133659706Y-94267000D01*
X134231969Y-94029961D01*
X134669961Y-93591969D01*
X134907000Y-93019706D01*
X134907000Y-92424039D01*
X144658096Y-92424039D01*
X144818959Y-92812423D01*
X145194866Y-93227389D01*
X145700959Y-93466914D01*
X145923000Y-93345629D01*
X145923000Y-92202000D01*
X146177000Y-92202000D01*
X146177000Y-93345629D01*
X146399041Y-93466914D01*
X146905134Y-93227389D01*
X147281041Y-92812423D01*
X147441904Y-92424039D01*
X147319915Y-92202000D01*
X146177000Y-92202000D01*
X145923000Y-92202000D01*
X144780085Y-92202000D01*
X144658096Y-92424039D01*
X134907000Y-92424039D01*
X134907000Y-92400294D01*
X134669961Y-91828031D01*
X134231969Y-91390039D01*
X133659706Y-91153000D01*
X133040294Y-91153000D01*
X132468031Y-91390039D01*
X132030039Y-91828031D01*
X131793000Y-92400294D01*
X119236100Y-92400294D01*
X119236100Y-89860294D01*
X134333000Y-89860294D01*
X134333000Y-90479706D01*
X134570039Y-91051969D01*
X135008031Y-91489961D01*
X135580294Y-91727000D01*
X136199706Y-91727000D01*
X136771969Y-91489961D01*
X137209961Y-91051969D01*
X137447000Y-90479706D01*
X137447000Y-89860294D01*
X137209961Y-89288031D01*
X136771969Y-88850039D01*
X136199706Y-88613000D01*
X135580294Y-88613000D01*
X135008031Y-88850039D01*
X134570039Y-89288031D01*
X134333000Y-89860294D01*
X119236100Y-89860294D01*
X119236100Y-86360000D01*
X129684167Y-86360000D01*
X129818202Y-87033842D01*
X130199903Y-87605097D01*
X130771158Y-87986798D01*
X131274909Y-88087000D01*
X131615091Y-88087000D01*
X132118842Y-87986798D01*
X132690097Y-87605097D01*
X133071798Y-87033842D01*
X133205833Y-86360000D01*
X133137503Y-86016478D01*
X139878000Y-86016478D01*
X139878000Y-86703522D01*
X140140920Y-87338267D01*
X140626733Y-87824080D01*
X141261478Y-88087000D01*
X141948522Y-88087000D01*
X142583267Y-87824080D01*
X143069080Y-87338267D01*
X143332000Y-86703522D01*
X143332000Y-86016478D01*
X143069080Y-85381733D01*
X142583267Y-84895920D01*
X141948522Y-84633000D01*
X141261478Y-84633000D01*
X140626733Y-84895920D01*
X140140920Y-85381733D01*
X139878000Y-86016478D01*
X133137503Y-86016478D01*
X133071798Y-85686158D01*
X132690097Y-85114903D01*
X132118842Y-84733202D01*
X131615091Y-84633000D01*
X131274909Y-84633000D01*
X130771158Y-84733202D01*
X130199903Y-85114903D01*
X129818202Y-85686158D01*
X129684167Y-86360000D01*
X119236100Y-86360000D01*
X119236100Y-82550000D01*
X129684167Y-82550000D01*
X129818202Y-83223842D01*
X130199903Y-83795097D01*
X130771158Y-84176798D01*
X131274909Y-84277000D01*
X131615091Y-84277000D01*
X132118842Y-84176798D01*
X132690097Y-83795097D01*
X133071798Y-83223842D01*
X133205833Y-82550000D01*
X133137503Y-82206478D01*
X139878000Y-82206478D01*
X139878000Y-82893522D01*
X140140920Y-83528267D01*
X140626733Y-84014080D01*
X141261478Y-84277000D01*
X141948522Y-84277000D01*
X142583267Y-84014080D01*
X143069080Y-83528267D01*
X143332000Y-82893522D01*
X143332000Y-82206478D01*
X143069080Y-81571733D01*
X142583267Y-81085920D01*
X141948522Y-80823000D01*
X141261478Y-80823000D01*
X140626733Y-81085920D01*
X140140920Y-81571733D01*
X139878000Y-82206478D01*
X133137503Y-82206478D01*
X133071798Y-81876158D01*
X132690097Y-81304903D01*
X132118842Y-80923202D01*
X131615091Y-80823000D01*
X131274909Y-80823000D01*
X130771158Y-80923202D01*
X130199903Y-81304903D01*
X129818202Y-81876158D01*
X129684167Y-82550000D01*
X119236100Y-82550000D01*
X119236100Y-78396478D01*
X129718000Y-78396478D01*
X129718000Y-79083522D01*
X129980920Y-79718267D01*
X130466733Y-80204080D01*
X131101478Y-80467000D01*
X131788522Y-80467000D01*
X132423267Y-80204080D01*
X132909080Y-79718267D01*
X133172000Y-79083522D01*
X133172000Y-78740000D01*
X139844167Y-78740000D01*
X139978202Y-79413842D01*
X140359903Y-79985097D01*
X140931158Y-80366798D01*
X141434909Y-80467000D01*
X141775091Y-80467000D01*
X142278842Y-80366798D01*
X142850097Y-79985097D01*
X143231798Y-79413842D01*
X143365833Y-78740000D01*
X143231798Y-78066158D01*
X142850097Y-77494903D01*
X142278842Y-77113202D01*
X141775091Y-77013000D01*
X141434909Y-77013000D01*
X140931158Y-77113202D01*
X140359903Y-77494903D01*
X139978202Y-78066158D01*
X139844167Y-78740000D01*
X133172000Y-78740000D01*
X133172000Y-78396478D01*
X132909080Y-77761733D01*
X132423267Y-77275920D01*
X131788522Y-77013000D01*
X131101478Y-77013000D01*
X130466733Y-77275920D01*
X129980920Y-77761733D01*
X129718000Y-78396478D01*
X119236100Y-78396478D01*
X119236100Y-74930000D01*
X123561330Y-74930000D01*
X123726410Y-75759914D01*
X124196519Y-76463481D01*
X124900086Y-76933590D01*
X125520511Y-77057000D01*
X125939489Y-77057000D01*
X126559914Y-76933590D01*
X127263481Y-76463481D01*
X127733590Y-75759914D01*
X127898670Y-74930000D01*
X127830340Y-74586478D01*
X132338000Y-74586478D01*
X132338000Y-75273522D01*
X132600920Y-75908267D01*
X133086733Y-76394080D01*
X133721478Y-76657000D01*
X134408522Y-76657000D01*
X135043267Y-76394080D01*
X135529080Y-75908267D01*
X135792000Y-75273522D01*
X135792000Y-74586478D01*
X135529080Y-73951733D01*
X135043267Y-73465920D01*
X134408522Y-73203000D01*
X133721478Y-73203000D01*
X133086733Y-73465920D01*
X132600920Y-73951733D01*
X132338000Y-74586478D01*
X127830340Y-74586478D01*
X127733590Y-74100086D01*
X127263481Y-73396519D01*
X126559914Y-72926410D01*
X125939489Y-72803000D01*
X125520511Y-72803000D01*
X124900086Y-72926410D01*
X124196519Y-73396519D01*
X123726410Y-74100086D01*
X123561330Y-74930000D01*
X119236100Y-74930000D01*
X119236100Y-71738600D01*
X144070034Y-71738600D01*
X144051192Y-71751190D01*
X144051192Y-71751190D01*
G37*
X144051192Y-71751190D02*
X143971578Y-71870340D01*
X143870340Y-71971579D01*
X143751192Y-72051191D01*
X143557183Y-72341546D01*
X143435796Y-72523213D01*
X143325045Y-73080000D01*
X143353001Y-73220545D01*
X143353001Y-73350645D01*
X143261670Y-73411670D01*
X143200645Y-73503000D01*
X140080347Y-73503000D01*
X140043267Y-73465920D01*
X139408522Y-73203000D01*
X138721478Y-73203000D01*
X138086733Y-73465920D01*
X137600920Y-73951733D01*
X137338000Y-74586478D01*
X137338000Y-75273522D01*
X137600920Y-75908267D01*
X138086733Y-76394080D01*
X138721478Y-76657000D01*
X139408522Y-76657000D01*
X140043267Y-76394080D01*
X140080347Y-76357000D01*
X143200645Y-76357000D01*
X143261670Y-76448330D01*
X143568303Y-76653215D01*
X143930000Y-76725161D01*
X145630000Y-76725161D01*
X145991697Y-76653215D01*
X146298330Y-76448330D01*
X146327806Y-76404216D01*
X146626649Y-76603897D01*
X147144983Y-76707000D01*
X147495017Y-76707000D01*
X148013351Y-76603897D01*
X148590000Y-76218592D01*
X149166649Y-76603897D01*
X149684983Y-76707000D01*
X150035017Y-76707000D01*
X150553351Y-76603897D01*
X150973000Y-76323496D01*
X150973001Y-81008917D01*
X149585340Y-82396579D01*
X149466191Y-82476192D01*
X149150796Y-82948213D01*
X149068000Y-83364457D01*
X149068000Y-83364460D01*
X149040045Y-83505000D01*
X149068000Y-83645541D01*
X149068001Y-89131888D01*
X148561456Y-88625343D01*
X148481841Y-88506191D01*
X148009820Y-88190796D01*
X147593576Y-88108000D01*
X147593572Y-88108000D01*
X147453032Y-88080045D01*
X147394224Y-88091742D01*
X147676798Y-87668842D01*
X147810833Y-86995000D01*
X147676798Y-86321158D01*
X147444113Y-85972920D01*
X147518330Y-85923330D01*
X147723215Y-85616697D01*
X147795161Y-85255000D01*
X147795161Y-83655000D01*
X147723215Y-83293303D01*
X147518330Y-82986670D01*
X147211697Y-82781785D01*
X146850000Y-82709839D01*
X145250000Y-82709839D01*
X144888303Y-82781785D01*
X144581670Y-82986670D01*
X144376785Y-83293303D01*
X144304839Y-83655000D01*
X144304839Y-85255000D01*
X144376785Y-85616697D01*
X144581670Y-85923330D01*
X144655887Y-85972920D01*
X144423202Y-86321158D01*
X144289167Y-86995000D01*
X144423202Y-87668842D01*
X144804903Y-88240097D01*
X144842173Y-88265000D01*
X144804903Y-88289903D01*
X144423202Y-88861158D01*
X144289167Y-89535000D01*
X144423202Y-90208842D01*
X144804903Y-90780097D01*
X145128249Y-90996150D01*
X144818959Y-91337577D01*
X144658096Y-91725961D01*
X144780085Y-91948000D01*
X145923000Y-91948000D01*
X145923000Y-91928000D01*
X146177000Y-91928000D01*
X146177000Y-91948000D01*
X147319915Y-91948000D01*
X147441904Y-91725961D01*
X147311806Y-91411855D01*
X153989611Y-98089661D01*
X154069224Y-98208810D01*
X154541245Y-98524205D01*
X154957489Y-98607001D01*
X154957492Y-98607001D01*
X155098032Y-98634956D01*
X155238573Y-98607001D01*
X164934459Y-98607001D01*
X165074999Y-98634956D01*
X165215539Y-98607001D01*
X165215543Y-98607001D01*
X165631787Y-98524205D01*
X166103808Y-98208810D01*
X166183423Y-98089658D01*
X166215906Y-98057175D01*
X170332430Y-98057175D01*
X170455565Y-98344788D01*
X171137734Y-98604707D01*
X171867443Y-98583786D01*
X172444435Y-98344788D01*
X172567570Y-98057175D01*
X171450000Y-96939605D01*
X170332430Y-98057175D01*
X166215906Y-98057175D01*
X167825347Y-96447734D01*
X169605293Y-96447734D01*
X169626214Y-97177443D01*
X169865212Y-97754435D01*
X170152825Y-97877570D01*
X171270395Y-96760000D01*
X171629605Y-96760000D01*
X172747175Y-97877570D01*
X173034788Y-97754435D01*
X173294707Y-97072266D01*
X173273786Y-96342557D01*
X173034788Y-95765565D01*
X172747175Y-95642430D01*
X171629605Y-96760000D01*
X171270395Y-96760000D01*
X170152825Y-95642430D01*
X169865212Y-95765565D01*
X169605293Y-96447734D01*
X167825347Y-96447734D01*
X168810256Y-95462825D01*
X170332430Y-95462825D01*
X171450000Y-96580395D01*
X172567570Y-95462825D01*
X172444435Y-95175212D01*
X171762266Y-94915293D01*
X171032557Y-94936214D01*
X170455565Y-95175212D01*
X170332430Y-95462825D01*
X168810256Y-95462825D01*
X169836083Y-94437000D01*
X169888522Y-94437000D01*
X170523267Y-94174080D01*
X171009080Y-93688267D01*
X171269713Y-93059041D01*
X172598086Y-93059041D01*
X172837611Y-93565134D01*
X173252577Y-93941041D01*
X173640961Y-94101904D01*
X173863000Y-93979915D01*
X173863000Y-92837000D01*
X174117000Y-92837000D01*
X174117000Y-93979915D01*
X174339039Y-94101904D01*
X174727423Y-93941041D01*
X175142389Y-93565134D01*
X175381914Y-93059041D01*
X175260629Y-92837000D01*
X174117000Y-92837000D01*
X173863000Y-92837000D01*
X172719371Y-92837000D01*
X172598086Y-93059041D01*
X171269713Y-93059041D01*
X171272000Y-93053522D01*
X171272000Y-92366478D01*
X171269714Y-92360959D01*
X172598086Y-92360959D01*
X172719371Y-92583000D01*
X173863000Y-92583000D01*
X173863000Y-91440085D01*
X174117000Y-91440085D01*
X174117000Y-92583000D01*
X175260629Y-92583000D01*
X175381914Y-92360959D01*
X175142389Y-91854866D01*
X174727423Y-91478959D01*
X174339039Y-91318096D01*
X174117000Y-91440085D01*
X173863000Y-91440085D01*
X173640961Y-91318096D01*
X173252577Y-91478959D01*
X172837611Y-91854866D01*
X172598086Y-92360959D01*
X171269714Y-92360959D01*
X171009080Y-91731733D01*
X170629425Y-91352078D01*
X170858809Y-91198809D01*
X170938424Y-91079657D01*
X176999663Y-85018419D01*
X177118809Y-84938808D01*
X177247321Y-84746478D01*
X177434205Y-84466787D01*
X177491887Y-84176798D01*
X177517001Y-84050543D01*
X177517001Y-84050540D01*
X177544956Y-83910000D01*
X177517001Y-83769460D01*
X177517001Y-81230540D01*
X177544956Y-81090000D01*
X177517001Y-80949460D01*
X177517001Y-80949457D01*
X177434205Y-80533213D01*
X177118810Y-80061192D01*
X176999663Y-79981581D01*
X175401216Y-78383134D01*
X175321601Y-78263983D01*
X174849580Y-77948588D01*
X174433336Y-77865792D01*
X174433332Y-77865792D01*
X174292792Y-77837837D01*
X174152252Y-77865792D01*
X172591082Y-77865792D01*
X172360290Y-77635000D01*
X172434250Y-77635000D01*
X172593000Y-77476250D01*
X172593000Y-76327000D01*
X172847000Y-76327000D01*
X172847000Y-77476250D01*
X173005750Y-77635000D01*
X173646309Y-77635000D01*
X173879698Y-77538327D01*
X174058327Y-77359699D01*
X174155000Y-77126310D01*
X174155000Y-76485750D01*
X173996250Y-76327000D01*
X172847000Y-76327000D01*
X172593000Y-76327000D01*
X172573000Y-76327000D01*
X172573000Y-76073000D01*
X172593000Y-76073000D01*
X172593000Y-74923750D01*
X172847000Y-74923750D01*
X172847000Y-76073000D01*
X173996250Y-76073000D01*
X174155000Y-75914250D01*
X174155000Y-75273690D01*
X174058327Y-75040301D01*
X173879698Y-74861673D01*
X173646309Y-74765000D01*
X173005750Y-74765000D01*
X172847000Y-74923750D01*
X172593000Y-74923750D01*
X172434250Y-74765000D01*
X171793691Y-74765000D01*
X171560302Y-74861673D01*
X171492871Y-74929103D01*
X171214912Y-74651144D01*
X170543413Y-74373000D01*
X169816587Y-74373000D01*
X169145088Y-74651144D01*
X168631144Y-75165088D01*
X168353000Y-75836587D01*
X168353000Y-76563413D01*
X168631144Y-77234912D01*
X168748933Y-77352701D01*
X168725045Y-77472792D01*
X168753000Y-77613332D01*
X168753000Y-77613336D01*
X168835796Y-78029580D01*
X169151192Y-78501601D01*
X169270340Y-78581214D01*
X170891580Y-80202454D01*
X170971191Y-80321601D01*
X171090337Y-80401212D01*
X171090338Y-80401213D01*
X171212875Y-80483090D01*
X171443212Y-80636996D01*
X171859456Y-80719792D01*
X171859460Y-80719792D01*
X172000000Y-80747747D01*
X172140540Y-80719792D01*
X173701710Y-80719792D01*
X173804918Y-80823000D01*
X173646478Y-80823000D01*
X173011733Y-81085920D01*
X172525920Y-81571733D01*
X172263000Y-82206478D01*
X172263000Y-82258917D01*
X170917515Y-83604402D01*
X171171798Y-83223842D01*
X171305833Y-82550000D01*
X171171798Y-81876158D01*
X170790097Y-81304903D01*
X170218842Y-80923202D01*
X169715091Y-80823000D01*
X169374909Y-80823000D01*
X168871158Y-80923202D01*
X168299903Y-81304903D01*
X167918202Y-81876158D01*
X167784167Y-82550000D01*
X167918202Y-83223842D01*
X168299903Y-83795097D01*
X168871158Y-84176798D01*
X169374909Y-84277000D01*
X169715091Y-84277000D01*
X170218842Y-84176798D01*
X170599403Y-83922515D01*
X168758918Y-85763001D01*
X165420525Y-85763001D01*
X165557000Y-85433522D01*
X165557000Y-84746478D01*
X165294080Y-84111733D01*
X164808267Y-83625920D01*
X164173522Y-83363000D01*
X164121082Y-83363000D01*
X161403082Y-80645000D01*
X163339167Y-80645000D01*
X163473202Y-81318842D01*
X163854903Y-81890097D01*
X164426158Y-82271798D01*
X164929909Y-82372000D01*
X165270091Y-82372000D01*
X165773842Y-82271798D01*
X166345097Y-81890097D01*
X166726798Y-81318842D01*
X166860833Y-80645000D01*
X166726798Y-79971158D01*
X166345097Y-79399903D01*
X165773842Y-79018202D01*
X165270091Y-78918000D01*
X164929909Y-78918000D01*
X164426158Y-79018202D01*
X163854903Y-79399903D01*
X163473202Y-79971158D01*
X163339167Y-80645000D01*
X161403082Y-80645000D01*
X160493424Y-79735343D01*
X160413809Y-79616191D01*
X159941788Y-79300796D01*
X159525544Y-79218000D01*
X159525540Y-79218000D01*
X159385000Y-79190045D01*
X159244460Y-79218000D01*
X158975946Y-79218000D01*
X158948330Y-79176670D01*
X158641697Y-78971785D01*
X158280000Y-78899839D01*
X156680000Y-78899839D01*
X156318303Y-78971785D01*
X156011670Y-79176670D01*
X155806785Y-79483303D01*
X155734839Y-79845000D01*
X155734839Y-80821760D01*
X155732000Y-80818921D01*
X155732000Y-77981914D01*
X156018303Y-78173215D01*
X156380000Y-78245161D01*
X158580000Y-78245161D01*
X158941697Y-78173215D01*
X159248330Y-77968330D01*
X159453215Y-77661697D01*
X159525161Y-77300000D01*
X159525161Y-75100000D01*
X159453215Y-74738303D01*
X159248330Y-74431670D01*
X158941697Y-74226785D01*
X158842226Y-74206999D01*
X161088917Y-74206999D01*
X161870337Y-74988420D01*
X161870343Y-74988424D01*
X163041357Y-76159439D01*
X163033289Y-76200000D01*
X163190608Y-76990896D01*
X163638615Y-77661385D01*
X164309104Y-78109392D01*
X164900359Y-78227000D01*
X165299641Y-78227000D01*
X165890896Y-78109392D01*
X166561385Y-77661385D01*
X167009392Y-76990896D01*
X167166711Y-76200000D01*
X167009392Y-75409104D01*
X166561385Y-74738615D01*
X165890896Y-74290608D01*
X165299641Y-74173000D01*
X165091082Y-74173000D01*
X163888424Y-72970343D01*
X163888420Y-72970337D01*
X162788422Y-71870341D01*
X162708808Y-71751190D01*
X162689966Y-71738600D01*
X177766100Y-71738600D01*
X177766101Y-138268600D01*
X119236100Y-138268600D01*
X119236100Y-132926913D01*
X123603000Y-132926913D01*
X123603000Y-133773087D01*
X123926817Y-134554848D01*
X124525152Y-135153183D01*
X125306913Y-135477000D01*
X126153087Y-135477000D01*
X126934848Y-135153183D01*
X127533183Y-134554848D01*
X127857000Y-133773087D01*
X127857000Y-132926913D01*
X127533183Y-132145152D01*
X127238031Y-131850000D01*
X133444839Y-131850000D01*
X133444839Y-134850000D01*
X133516785Y-135211697D01*
X133721670Y-135518330D01*
X134028303Y-135723215D01*
X134390000Y-135795161D01*
X137390000Y-135795161D01*
X137751697Y-135723215D01*
X138058330Y-135518330D01*
X138263215Y-135211697D01*
X138335161Y-134850000D01*
X138335161Y-132867240D01*
X138543000Y-132867240D01*
X138543000Y-133832760D01*
X138912489Y-134724785D01*
X139595215Y-135407511D01*
X140487240Y-135777000D01*
X141452760Y-135777000D01*
X142344785Y-135407511D01*
X143027511Y-134724785D01*
X143397000Y-133832760D01*
X143397000Y-132867240D01*
X143623000Y-132867240D01*
X143623000Y-133832760D01*
X143992489Y-134724785D01*
X144675215Y-135407511D01*
X145567240Y-135777000D01*
X146532760Y-135777000D01*
X147424785Y-135407511D01*
X148107511Y-134724785D01*
X148477000Y-133832760D01*
X148477000Y-132867240D01*
X148703000Y-132867240D01*
X148703000Y-133832760D01*
X149072489Y-134724785D01*
X149755215Y-135407511D01*
X150647240Y-135777000D01*
X151612760Y-135777000D01*
X152504785Y-135407511D01*
X153187511Y-134724785D01*
X153557000Y-133832760D01*
X153557000Y-132867240D01*
X153783000Y-132867240D01*
X153783000Y-133832760D01*
X154152489Y-134724785D01*
X154835215Y-135407511D01*
X155727240Y-135777000D01*
X156692760Y-135777000D01*
X157584785Y-135407511D01*
X158267511Y-134724785D01*
X158637000Y-133832760D01*
X158637000Y-132867240D01*
X158863000Y-132867240D01*
X158863000Y-133832760D01*
X159232489Y-134724785D01*
X159915215Y-135407511D01*
X160807240Y-135777000D01*
X161772760Y-135777000D01*
X162664785Y-135407511D01*
X163347511Y-134724785D01*
X163717000Y-133832760D01*
X163717000Y-132887131D01*
X169123000Y-132887131D01*
X169123000Y-133812869D01*
X169477264Y-134668140D01*
X170131860Y-135322736D01*
X170987131Y-135677000D01*
X171912869Y-135677000D01*
X172768140Y-135322736D01*
X173422736Y-134668140D01*
X173777000Y-133812869D01*
X173777000Y-132887131D01*
X173422736Y-132031860D01*
X172768140Y-131377264D01*
X171912869Y-131023000D01*
X170987131Y-131023000D01*
X170131860Y-131377264D01*
X169477264Y-132031860D01*
X169123000Y-132887131D01*
X163717000Y-132887131D01*
X163717000Y-132867240D01*
X163347511Y-131975215D01*
X162664785Y-131292489D01*
X161772760Y-130923000D01*
X160807240Y-130923000D01*
X159915215Y-131292489D01*
X159232489Y-131975215D01*
X158863000Y-132867240D01*
X158637000Y-132867240D01*
X158267511Y-131975215D01*
X157584785Y-131292489D01*
X156692760Y-130923000D01*
X155727240Y-130923000D01*
X154835215Y-131292489D01*
X154152489Y-131975215D01*
X153783000Y-132867240D01*
X153557000Y-132867240D01*
X153187511Y-131975215D01*
X152504785Y-131292489D01*
X151612760Y-130923000D01*
X150647240Y-130923000D01*
X149755215Y-131292489D01*
X149072489Y-131975215D01*
X148703000Y-132867240D01*
X148477000Y-132867240D01*
X148107511Y-131975215D01*
X147424785Y-131292489D01*
X146532760Y-130923000D01*
X145567240Y-130923000D01*
X144675215Y-131292489D01*
X143992489Y-131975215D01*
X143623000Y-132867240D01*
X143397000Y-132867240D01*
X143027511Y-131975215D01*
X142344785Y-131292489D01*
X141452760Y-130923000D01*
X140487240Y-130923000D01*
X139595215Y-131292489D01*
X138912489Y-131975215D01*
X138543000Y-132867240D01*
X138335161Y-132867240D01*
X138335161Y-131850000D01*
X138263215Y-131488303D01*
X138058330Y-131181670D01*
X137751697Y-130976785D01*
X137390000Y-130904839D01*
X134390000Y-130904839D01*
X134028303Y-130976785D01*
X133721670Y-131181670D01*
X133516785Y-131488303D01*
X133444839Y-131850000D01*
X127238031Y-131850000D01*
X126934848Y-131546817D01*
X126153087Y-131223000D01*
X125306913Y-131223000D01*
X124525152Y-131546817D01*
X123926817Y-132145152D01*
X123603000Y-132926913D01*
X119236100Y-132926913D01*
X119236100Y-125730000D01*
X133721330Y-125730000D01*
X133886410Y-126559914D01*
X134356519Y-127263481D01*
X135060086Y-127733590D01*
X135680511Y-127857000D01*
X136099489Y-127857000D01*
X136719914Y-127733590D01*
X137423481Y-127263481D01*
X137893590Y-126559914D01*
X138058670Y-125730000D01*
X141341330Y-125730000D01*
X141506410Y-126559914D01*
X141976519Y-127263481D01*
X142680086Y-127733590D01*
X143300511Y-127857000D01*
X143719489Y-127857000D01*
X144339914Y-127733590D01*
X145043481Y-127263481D01*
X145513590Y-126559914D01*
X145678670Y-125730000D01*
X145513590Y-124900086D01*
X145266307Y-124530000D01*
X151524839Y-124530000D01*
X151524839Y-126930000D01*
X151596785Y-127291697D01*
X151801670Y-127598330D01*
X152108303Y-127803215D01*
X152470000Y-127875161D01*
X154870000Y-127875161D01*
X155231697Y-127803215D01*
X155538330Y-127598330D01*
X155743215Y-127291697D01*
X155815161Y-126930000D01*
X155815161Y-124530000D01*
X159144839Y-124530000D01*
X159144839Y-126930000D01*
X159216785Y-127291697D01*
X159421670Y-127598330D01*
X159728303Y-127803215D01*
X160090000Y-127875161D01*
X162490000Y-127875161D01*
X162851697Y-127803215D01*
X163158330Y-127598330D01*
X163363215Y-127291697D01*
X163435161Y-126930000D01*
X163435161Y-124530000D01*
X163363215Y-124168303D01*
X163158330Y-123861670D01*
X162851697Y-123656785D01*
X162490000Y-123584839D01*
X160090000Y-123584839D01*
X159728303Y-123656785D01*
X159421670Y-123861670D01*
X159216785Y-124168303D01*
X159144839Y-124530000D01*
X155815161Y-124530000D01*
X155743215Y-124168303D01*
X155538330Y-123861670D01*
X155231697Y-123656785D01*
X154870000Y-123584839D01*
X152470000Y-123584839D01*
X152108303Y-123656785D01*
X151801670Y-123861670D01*
X151596785Y-124168303D01*
X151524839Y-124530000D01*
X145266307Y-124530000D01*
X145043481Y-124196519D01*
X144339914Y-123726410D01*
X143719489Y-123603000D01*
X143300511Y-123603000D01*
X142680086Y-123726410D01*
X141976519Y-124196519D01*
X141506410Y-124900086D01*
X141341330Y-125730000D01*
X138058670Y-125730000D01*
X137893590Y-124900086D01*
X137423481Y-124196519D01*
X136719914Y-123726410D01*
X136099489Y-123603000D01*
X135680511Y-123603000D01*
X135060086Y-123726410D01*
X134356519Y-124196519D01*
X133886410Y-124900086D01*
X133721330Y-125730000D01*
X119236100Y-125730000D01*
X119236100Y-118110000D01*
X169077412Y-118110000D01*
X169258015Y-119017950D01*
X169772327Y-119787673D01*
X170542050Y-120301985D01*
X171220814Y-120437000D01*
X171679186Y-120437000D01*
X172357950Y-120301985D01*
X173127673Y-119787673D01*
X173641985Y-119017950D01*
X173822588Y-118110000D01*
X173641985Y-117202050D01*
X173127673Y-116432327D01*
X172357950Y-115918015D01*
X171679186Y-115783000D01*
X171220814Y-115783000D01*
X170542050Y-115918015D01*
X169772327Y-116432327D01*
X169258015Y-117202050D01*
X169077412Y-118110000D01*
X119236100Y-118110000D01*
X119236100Y-110490000D01*
X123561330Y-110490000D01*
X123726410Y-111319914D01*
X124196519Y-112023481D01*
X124900086Y-112493590D01*
X125520511Y-112617000D01*
X125939489Y-112617000D01*
X126559914Y-112493590D01*
X127263481Y-112023481D01*
X127392761Y-111830000D01*
X133744839Y-111830000D01*
X133744839Y-114230000D01*
X133816785Y-114591697D01*
X134021670Y-114898330D01*
X134328303Y-115103215D01*
X134690000Y-115175161D01*
X137090000Y-115175161D01*
X137451697Y-115103215D01*
X137758330Y-114898330D01*
X137963215Y-114591697D01*
X138035161Y-114230000D01*
X138035161Y-111830000D01*
X141364839Y-111830000D01*
X141364839Y-114230000D01*
X141436785Y-114591697D01*
X141641670Y-114898330D01*
X141948303Y-115103215D01*
X142310000Y-115175161D01*
X144710000Y-115175161D01*
X145071697Y-115103215D01*
X145378330Y-114898330D01*
X145583215Y-114591697D01*
X145655161Y-114230000D01*
X145655161Y-113441807D01*
X151881797Y-113441807D01*
X152175508Y-114094776D01*
X152696742Y-114585642D01*
X153258195Y-114818195D01*
X153543000Y-114701432D01*
X153543000Y-113157000D01*
X153797000Y-113157000D01*
X153797000Y-114701432D01*
X154081805Y-114818195D01*
X154643258Y-114585642D01*
X155164492Y-114094776D01*
X155458203Y-113441807D01*
X159501797Y-113441807D01*
X159795508Y-114094776D01*
X160316742Y-114585642D01*
X160878195Y-114818195D01*
X161163000Y-114701432D01*
X161163000Y-113157000D01*
X161417000Y-113157000D01*
X161417000Y-114701432D01*
X161701805Y-114818195D01*
X162263258Y-114585642D01*
X162784492Y-114094776D01*
X163078203Y-113441807D01*
X162961858Y-113157000D01*
X161417000Y-113157000D01*
X161163000Y-113157000D01*
X159618142Y-113157000D01*
X159501797Y-113441807D01*
X155458203Y-113441807D01*
X155341858Y-113157000D01*
X153797000Y-113157000D01*
X153543000Y-113157000D01*
X151998142Y-113157000D01*
X151881797Y-113441807D01*
X145655161Y-113441807D01*
X145655161Y-112618193D01*
X151881797Y-112618193D01*
X151998142Y-112903000D01*
X153543000Y-112903000D01*
X153543000Y-111358568D01*
X153797000Y-111358568D01*
X153797000Y-112903000D01*
X155341858Y-112903000D01*
X155458203Y-112618193D01*
X159501797Y-112618193D01*
X159618142Y-112903000D01*
X161163000Y-112903000D01*
X161163000Y-111358568D01*
X161417000Y-111358568D01*
X161417000Y-112903000D01*
X162961858Y-112903000D01*
X163078203Y-112618193D01*
X162784492Y-111965224D01*
X162263258Y-111474358D01*
X161931425Y-111336913D01*
X169323000Y-111336913D01*
X169323000Y-112183087D01*
X169646817Y-112964848D01*
X170245152Y-113563183D01*
X171026913Y-113887000D01*
X171873087Y-113887000D01*
X172654848Y-113563183D01*
X173253183Y-112964848D01*
X173577000Y-112183087D01*
X173577000Y-111336913D01*
X173253183Y-110555152D01*
X172654848Y-109956817D01*
X171873087Y-109633000D01*
X171026913Y-109633000D01*
X170245152Y-109956817D01*
X169646817Y-110555152D01*
X169323000Y-111336913D01*
X161931425Y-111336913D01*
X161701805Y-111241805D01*
X161417000Y-111358568D01*
X161163000Y-111358568D01*
X160878195Y-111241805D01*
X160316742Y-111474358D01*
X159795508Y-111965224D01*
X159501797Y-112618193D01*
X155458203Y-112618193D01*
X155164492Y-111965224D01*
X154643258Y-111474358D01*
X154081805Y-111241805D01*
X153797000Y-111358568D01*
X153543000Y-111358568D01*
X153258195Y-111241805D01*
X152696742Y-111474358D01*
X152175508Y-111965224D01*
X151881797Y-112618193D01*
X145655161Y-112618193D01*
X145655161Y-111830000D01*
X145583215Y-111468303D01*
X145378330Y-111161670D01*
X145071697Y-110956785D01*
X144710000Y-110884839D01*
X142310000Y-110884839D01*
X141948303Y-110956785D01*
X141641670Y-111161670D01*
X141436785Y-111468303D01*
X141364839Y-111830000D01*
X138035161Y-111830000D01*
X137963215Y-111468303D01*
X137758330Y-111161670D01*
X137451697Y-110956785D01*
X137090000Y-110884839D01*
X134690000Y-110884839D01*
X134328303Y-110956785D01*
X134021670Y-111161670D01*
X133816785Y-111468303D01*
X133744839Y-111830000D01*
X127392761Y-111830000D01*
X127733590Y-111319914D01*
X127898670Y-110490000D01*
X127733590Y-109660086D01*
X127263481Y-108956519D01*
X126559914Y-108486410D01*
X125939489Y-108363000D01*
X125520511Y-108363000D01*
X124900086Y-108486410D01*
X124196519Y-108956519D01*
X123726410Y-109660086D01*
X123561330Y-110490000D01*
X119236100Y-110490000D01*
X119236100Y-102595640D01*
X132271767Y-102595640D01*
X132271767Y-103411560D01*
X132474678Y-104201845D01*
X132867750Y-104916841D01*
X133426285Y-105511621D01*
X134115188Y-105948812D01*
X134891174Y-106200945D01*
X135705483Y-106252177D01*
X136506950Y-106099289D01*
X137245216Y-105751887D01*
X137873893Y-105231801D01*
X138353478Y-104571708D01*
X138524403Y-104140000D01*
X144493085Y-104140000D01*
X144611598Y-104735806D01*
X144949095Y-105240905D01*
X145454194Y-105578402D01*
X145899607Y-105667000D01*
X146200393Y-105667000D01*
X146645806Y-105578402D01*
X147150905Y-105240905D01*
X147488402Y-104735806D01*
X147543738Y-104457609D01*
X149736538Y-104457609D01*
X149742526Y-104500161D01*
X149970745Y-104927172D01*
X150345002Y-105234343D01*
X150808319Y-105374910D01*
X151003000Y-105219991D01*
X151003000Y-104267000D01*
X151257000Y-104267000D01*
X151257000Y-105219991D01*
X151451681Y-105374910D01*
X151914998Y-105234343D01*
X152289255Y-104927172D01*
X152517474Y-104500161D01*
X152523462Y-104457609D01*
X152398731Y-104267000D01*
X151257000Y-104267000D01*
X151003000Y-104267000D01*
X149861269Y-104267000D01*
X149736538Y-104457609D01*
X147543738Y-104457609D01*
X147606915Y-104140000D01*
X147543739Y-103822391D01*
X149736538Y-103822391D01*
X149861269Y-104013000D01*
X151003000Y-104013000D01*
X151003000Y-103060009D01*
X151257000Y-103060009D01*
X151257000Y-104013000D01*
X152398731Y-104013000D01*
X152523462Y-103822391D01*
X152517474Y-103779839D01*
X152289255Y-103352828D01*
X151914998Y-103045657D01*
X151451681Y-102905090D01*
X151257000Y-103060009D01*
X151003000Y-103060009D01*
X150808319Y-102905090D01*
X150345002Y-103045657D01*
X149970745Y-103352828D01*
X149742526Y-103779839D01*
X149736538Y-103822391D01*
X147543739Y-103822391D01*
X147488402Y-103544194D01*
X147150905Y-103039095D01*
X146645806Y-102701598D01*
X146200393Y-102613000D01*
X145899607Y-102613000D01*
X145454194Y-102701598D01*
X144949095Y-103039095D01*
X144611598Y-103544194D01*
X144493085Y-104140000D01*
X138524403Y-104140000D01*
X138653838Y-103813086D01*
X138756100Y-103003600D01*
X138653838Y-102194114D01*
X138418612Y-101600000D01*
X147033085Y-101600000D01*
X147151598Y-102195806D01*
X147489095Y-102700905D01*
X147994194Y-103038402D01*
X148439607Y-103127000D01*
X148740393Y-103127000D01*
X149185806Y-103038402D01*
X149690905Y-102700905D01*
X149761240Y-102595640D01*
X158271767Y-102595640D01*
X158271767Y-103411560D01*
X158474678Y-104201845D01*
X158867750Y-104916841D01*
X159426285Y-105511621D01*
X160115188Y-105948812D01*
X160891174Y-106200945D01*
X161705483Y-106252177D01*
X162506950Y-106099289D01*
X163245216Y-105751887D01*
X163873893Y-105231801D01*
X164353478Y-104571708D01*
X164653838Y-103813086D01*
X164756100Y-103003600D01*
X164653838Y-102194114D01*
X164353478Y-101435492D01*
X163873893Y-100775399D01*
X163245216Y-100255313D01*
X162506950Y-99907911D01*
X161705483Y-99755023D01*
X160891174Y-99806255D01*
X160115188Y-100058388D01*
X159426285Y-100495579D01*
X158867750Y-101090359D01*
X158474678Y-101805355D01*
X158271767Y-102595640D01*
X149761240Y-102595640D01*
X150028402Y-102195806D01*
X150146915Y-101600000D01*
X150028402Y-101004194D01*
X149690905Y-100499095D01*
X149185806Y-100161598D01*
X148740393Y-100073000D01*
X148439607Y-100073000D01*
X147994194Y-100161598D01*
X147489095Y-100499095D01*
X147151598Y-101004194D01*
X147033085Y-101600000D01*
X138418612Y-101600000D01*
X138353478Y-101435492D01*
X137873893Y-100775399D01*
X137245216Y-100255313D01*
X136506950Y-99907911D01*
X135705483Y-99755023D01*
X134891174Y-99806255D01*
X134115188Y-100058388D01*
X133426285Y-100495579D01*
X132867750Y-101090359D01*
X132474678Y-101805355D01*
X132271767Y-102595640D01*
X119236100Y-102595640D01*
X119236100Y-97366913D01*
X123603000Y-97366913D01*
X123603000Y-98213087D01*
X123926817Y-98994848D01*
X124525152Y-99593183D01*
X125306913Y-99917000D01*
X126153087Y-99917000D01*
X126934848Y-99593183D01*
X127533183Y-98994848D01*
X127857000Y-98213087D01*
X127857000Y-97366913D01*
X127533183Y-96585152D01*
X126934848Y-95986817D01*
X126153087Y-95663000D01*
X125306913Y-95663000D01*
X124525152Y-95986817D01*
X123926817Y-96585152D01*
X123603000Y-97366913D01*
X119236100Y-97366913D01*
X119236100Y-94940294D01*
X134333000Y-94940294D01*
X134333000Y-95559706D01*
X134570039Y-96131969D01*
X135008031Y-96569961D01*
X135580294Y-96807000D01*
X136199706Y-96807000D01*
X136771969Y-96569961D01*
X137209961Y-96131969D01*
X137447000Y-95559706D01*
X137447000Y-94940294D01*
X137209961Y-94368031D01*
X136771969Y-93930039D01*
X136199706Y-93693000D01*
X135580294Y-93693000D01*
X135008031Y-93930039D01*
X134570039Y-94368031D01*
X134333000Y-94940294D01*
X119236100Y-94940294D01*
X119236100Y-92400294D01*
X131793000Y-92400294D01*
X131793000Y-93019706D01*
X132030039Y-93591969D01*
X132468031Y-94029961D01*
X133040294Y-94267000D01*
X133659706Y-94267000D01*
X134231969Y-94029961D01*
X134669961Y-93591969D01*
X134907000Y-93019706D01*
X134907000Y-92424039D01*
X144658096Y-92424039D01*
X144818959Y-92812423D01*
X145194866Y-93227389D01*
X145700959Y-93466914D01*
X145923000Y-93345629D01*
X145923000Y-92202000D01*
X146177000Y-92202000D01*
X146177000Y-93345629D01*
X146399041Y-93466914D01*
X146905134Y-93227389D01*
X147281041Y-92812423D01*
X147441904Y-92424039D01*
X147319915Y-92202000D01*
X146177000Y-92202000D01*
X145923000Y-92202000D01*
X144780085Y-92202000D01*
X144658096Y-92424039D01*
X134907000Y-92424039D01*
X134907000Y-92400294D01*
X134669961Y-91828031D01*
X134231969Y-91390039D01*
X133659706Y-91153000D01*
X133040294Y-91153000D01*
X132468031Y-91390039D01*
X132030039Y-91828031D01*
X131793000Y-92400294D01*
X119236100Y-92400294D01*
X119236100Y-89860294D01*
X134333000Y-89860294D01*
X134333000Y-90479706D01*
X134570039Y-91051969D01*
X135008031Y-91489961D01*
X135580294Y-91727000D01*
X136199706Y-91727000D01*
X136771969Y-91489961D01*
X137209961Y-91051969D01*
X137447000Y-90479706D01*
X137447000Y-89860294D01*
X137209961Y-89288031D01*
X136771969Y-88850039D01*
X136199706Y-88613000D01*
X135580294Y-88613000D01*
X135008031Y-88850039D01*
X134570039Y-89288031D01*
X134333000Y-89860294D01*
X119236100Y-89860294D01*
X119236100Y-86360000D01*
X129684167Y-86360000D01*
X129818202Y-87033842D01*
X130199903Y-87605097D01*
X130771158Y-87986798D01*
X131274909Y-88087000D01*
X131615091Y-88087000D01*
X132118842Y-87986798D01*
X132690097Y-87605097D01*
X133071798Y-87033842D01*
X133205833Y-86360000D01*
X133137503Y-86016478D01*
X139878000Y-86016478D01*
X139878000Y-86703522D01*
X140140920Y-87338267D01*
X140626733Y-87824080D01*
X141261478Y-88087000D01*
X141948522Y-88087000D01*
X142583267Y-87824080D01*
X143069080Y-87338267D01*
X143332000Y-86703522D01*
X143332000Y-86016478D01*
X143069080Y-85381733D01*
X142583267Y-84895920D01*
X141948522Y-84633000D01*
X141261478Y-84633000D01*
X140626733Y-84895920D01*
X140140920Y-85381733D01*
X139878000Y-86016478D01*
X133137503Y-86016478D01*
X133071798Y-85686158D01*
X132690097Y-85114903D01*
X132118842Y-84733202D01*
X131615091Y-84633000D01*
X131274909Y-84633000D01*
X130771158Y-84733202D01*
X130199903Y-85114903D01*
X129818202Y-85686158D01*
X129684167Y-86360000D01*
X119236100Y-86360000D01*
X119236100Y-82550000D01*
X129684167Y-82550000D01*
X129818202Y-83223842D01*
X130199903Y-83795097D01*
X130771158Y-84176798D01*
X131274909Y-84277000D01*
X131615091Y-84277000D01*
X132118842Y-84176798D01*
X132690097Y-83795097D01*
X133071798Y-83223842D01*
X133205833Y-82550000D01*
X133137503Y-82206478D01*
X139878000Y-82206478D01*
X139878000Y-82893522D01*
X140140920Y-83528267D01*
X140626733Y-84014080D01*
X141261478Y-84277000D01*
X141948522Y-84277000D01*
X142583267Y-84014080D01*
X143069080Y-83528267D01*
X143332000Y-82893522D01*
X143332000Y-82206478D01*
X143069080Y-81571733D01*
X142583267Y-81085920D01*
X141948522Y-80823000D01*
X141261478Y-80823000D01*
X140626733Y-81085920D01*
X140140920Y-81571733D01*
X139878000Y-82206478D01*
X133137503Y-82206478D01*
X133071798Y-81876158D01*
X132690097Y-81304903D01*
X132118842Y-80923202D01*
X131615091Y-80823000D01*
X131274909Y-80823000D01*
X130771158Y-80923202D01*
X130199903Y-81304903D01*
X129818202Y-81876158D01*
X129684167Y-82550000D01*
X119236100Y-82550000D01*
X119236100Y-78396478D01*
X129718000Y-78396478D01*
X129718000Y-79083522D01*
X129980920Y-79718267D01*
X130466733Y-80204080D01*
X131101478Y-80467000D01*
X131788522Y-80467000D01*
X132423267Y-80204080D01*
X132909080Y-79718267D01*
X133172000Y-79083522D01*
X133172000Y-78740000D01*
X139844167Y-78740000D01*
X139978202Y-79413842D01*
X140359903Y-79985097D01*
X140931158Y-80366798D01*
X141434909Y-80467000D01*
X141775091Y-80467000D01*
X142278842Y-80366798D01*
X142850097Y-79985097D01*
X143231798Y-79413842D01*
X143365833Y-78740000D01*
X143231798Y-78066158D01*
X142850097Y-77494903D01*
X142278842Y-77113202D01*
X141775091Y-77013000D01*
X141434909Y-77013000D01*
X140931158Y-77113202D01*
X140359903Y-77494903D01*
X139978202Y-78066158D01*
X139844167Y-78740000D01*
X133172000Y-78740000D01*
X133172000Y-78396478D01*
X132909080Y-77761733D01*
X132423267Y-77275920D01*
X131788522Y-77013000D01*
X131101478Y-77013000D01*
X130466733Y-77275920D01*
X129980920Y-77761733D01*
X129718000Y-78396478D01*
X119236100Y-78396478D01*
X119236100Y-74930000D01*
X123561330Y-74930000D01*
X123726410Y-75759914D01*
X124196519Y-76463481D01*
X124900086Y-76933590D01*
X125520511Y-77057000D01*
X125939489Y-77057000D01*
X126559914Y-76933590D01*
X127263481Y-76463481D01*
X127733590Y-75759914D01*
X127898670Y-74930000D01*
X127830340Y-74586478D01*
X132338000Y-74586478D01*
X132338000Y-75273522D01*
X132600920Y-75908267D01*
X133086733Y-76394080D01*
X133721478Y-76657000D01*
X134408522Y-76657000D01*
X135043267Y-76394080D01*
X135529080Y-75908267D01*
X135792000Y-75273522D01*
X135792000Y-74586478D01*
X135529080Y-73951733D01*
X135043267Y-73465920D01*
X134408522Y-73203000D01*
X133721478Y-73203000D01*
X133086733Y-73465920D01*
X132600920Y-73951733D01*
X132338000Y-74586478D01*
X127830340Y-74586478D01*
X127733590Y-74100086D01*
X127263481Y-73396519D01*
X126559914Y-72926410D01*
X125939489Y-72803000D01*
X125520511Y-72803000D01*
X124900086Y-72926410D01*
X124196519Y-73396519D01*
X123726410Y-74100086D01*
X123561330Y-74930000D01*
X119236100Y-74930000D01*
X119236100Y-71738600D01*
X144070034Y-71738600D01*
X144051192Y-71751190D01*
G04 #@! TD*
M02*
